<?xml version="1.0" encoding="utf-8"?>
<!-- Generator: Adobe Illustrator 19.0.0, SVG Export Plug-In . SVG Version: 6.00 Build 0)  -->
<svg version="1.1" id="Layer_1" xmlns="http://www.w3.org/2000/svg" xmlns:xlink="http://www.w3.org/1999/xlink" x="0px" y="0px"
	 viewBox="0 0 125.9 225" style="enable-background:new 0 0 125.9 225;" xml:space="preserve">
<style type="text/css">
	.st0{fill:#FFFFFF;stroke:#000000;stroke-miterlimit:10;}
	.st1{fill:none;stroke:#000000;stroke-miterlimit:10;}
</style>
<path id="XMLID_11_" class="st0" d="M62.9,0C28.2,0,0,28.2,0,62.9s28.2,62.9,62.9,62.9s62.9-28.2,62.9-62.9S97.7,0,62.9,0z
	 M63,116.5c-29.5,0-53.5-24-53.5-53.5S33.5,9.5,63,9.5s53.5,24,53.5,53.5S92.6,116.5,63,116.5z"/>
<circle id="XMLID_12_" class="st1" cx="63" cy="63" r="53.5"/>
<path id="XMLID_5_" class="st0" d="M49.3,59c14.1,0,28.2,0,42.3,0c0.4,1,0.9,1,1.4,1.8c0.3,0.5,0.6,1.1,0.7,1.9
	c0,0.1,0.1,1.8-0.8,2.9c0,0-0.1,0.4-1.4,1.4H49.3l15.9,16.3c0.2,0.3,0.8,1.2,0.7,2.5c0,0.4-0.1,1.5-1,2.5c-1.1,1.1-2.7,0.9-3,0.9
	c-1.5-0.1-2.5-1.2-2.7-1.4c-3.8-3.6-7.6-7.4-11.4-11.2c-3.8-3.8-7.5-7.6-11.1-11.4c-0.2-0.3-0.8-1.2-0.8-2.5c0-0.4,0.1-1.5,0.7-2.5
	c7.8-7.7,15.7-15.5,23.6-23.2c0.4-0.2,1.3-0.6,2.5-0.4c1.6,0.3,2.5,1.4,2.7,1.7c0.2,0.2,0.7,0.8,0.7,1.8c0.1,1.1-0.4,1.8-0.6,2
	C60.3,47.7,54.8,54,49.3,59z"/>
</svg>
